<svg id="Layer_1" data-name="Layer 1" xmlns="http://www.w3.org/2000/svg" viewBox="0 0 1237.07 996.6"><defs><style>.cls-1{fill:#b83bd5;}.cls-2{fill:#b13ed7;}.cls-3{fill:#a941d9;}.cls-4{fill:#a244db;}.cls-5{fill:#9b47dd;}.cls-6{fill:#944be0;}.cls-7{fill:#8c4ee2;}.cls-8{fill:#8551e4;}.cls-9{fill:#7e54e6;}.cls-10{fill:#7757e8;}.cls-11{fill:#705aea;}.cls-12{fill:#685dec;}.cls-13{fill:#6160ee;}.cls-14{fill:#5a63f0;}.cls-15{fill:#5366f2;}.cls-16{fill:#4b69f4;}.cls-17{fill:#446df7;}.cls-18{fill:#3d70f9;}.cls-19{fill:#3673fb;}.cls-20{fill:#2e76fd;}.cls-21{fill:#2779ff;}.cls-22{fill:#3473fb;}.cls-23{fill:#416ef7;}.cls-24{fill:#4f68f4;}.cls-25{fill:#5c62f0;}.cls-26{fill:#695dec;}.cls-27{fill:#7657e8;}.cls-28{fill:#8352e4;}.cls-29{fill:#904ce0;}.cls-30{fill:#9e46dd;}.cls-31{fill:#ab41d9;}</style></defs><path class="cls-1" d="M752.11,286.9c-20.47,1.48-41.31,4.43-60.49,12.05a93.23,93.23,0,0,0-31.9,20.48c-12.77,12.79-21.24,29.05-23.46,47.09a76.58,76.58,0,0,0,3.14,32.87c3.59,11.13,9.45,21.35,15.86,31.08,13.39,20.36,29.92,39.74,35.52,64.06A62.45,62.45,0,0,1,692.34,513a67.27,67.27,0,0,1-3.84,17.2c-3.73,10.82-9.12,21.18-11.2,32.51-1.75,9.58-.48,19.34,4.86,27.6,4.91,7.59,12.43,13.23,20.63,16.88a60,60,0,0,0,27.56,5.07c12.35-.67,24.28-4.34,35.68-9,23.72-9.63,46.44-23.93,72.51-26.09,12.78-1.06,24.78,1.72,36.29,7.18,10.38,4.93,20.09,11.19,30.74,15.56a77,77,0,0,0,61.13-1.65,74.26,74.26,0,0,0,39.45-45.7,76.84,76.84,0,0,0,3.07-30.62c-1.2-11.34-5.46-21.84-10.08-32.16-5.16-11.57-10.5-23.17-11.85-35.91-1.4-13.21.86-26.5,4.38-39.21,6.83-24.72,19-48.18,21.07-74.07,1.54-19.14-3.76-40.72-19.08-53.44-18-15-43-10.77-63-2.57-22.26,9.13-42.69,24.47-67.32,26.58a59.69,59.69,0,0,1-20.66-1.8,111.19,111.19,0,0,1-17.93-6.95c-6.15-2.86-12.25-5.8-18.58-8.23a113.55,113.55,0,0,0-23.68-6.31,138.61,138.61,0,0,0-30.4-1c-.48,0-.48.78,0,.75,18.6-1.29,37,.7,54.43,7.47,12,4.66,23.17,11.47,35.63,14.88,17.53,4.79,35.21.52,51.47-6.71,21.63-9.62,42-23.75,66.35-25.33,11.18-.73,22.52,1.68,31.59,8.49,8.06,6.05,13.63,14.91,16.88,24.36,7.74,22.41,2,45.88-5.37,67.55C995,402,984.37,426.22,986.35,451.8c.92,11.87,5.21,22.81,10,33.59s9.88,21.54,11.69,33.28a76.75,76.75,0,0,1-16.67,59.81c-13.73,16.49-34.76,25.85-56.1,26.25a75.09,75.09,0,0,1-32-6.61c-10.39-4.6-20-10.8-30.33-15.46a68.91,68.91,0,0,0-33.73-6.29c-12.33.91-24.28,4.7-35.67,9.35-23,9.37-45,23.19-70.19,25.53-18.78,1.74-40.34-5.12-50.81-21.77-5.68-9-6.3-19.62-3.84-29.82,2.65-11,8-21.16,11.39-31.94a62.51,62.51,0,0,0,1.4-33.39c-2.65-11.52-7.94-22.3-14-32.35-12.2-20.08-28.53-38-36.52-60.39a77.55,77.55,0,0,1,6.19-65,85.73,85.73,0,0,1,26.74-27.75c13.39-8.76,28.92-13.72,44.5-16.85a269.76,269.76,0,0,1,33.75-4.38C752.59,287.61,752.59,286.86,752.11,286.9Z"/><path class="cls-2" d="M634.3,323.07a83.36,83.36,0,0,0-19.55,61.53c1.15,11.89,5.19,23.26,10.42,33.95,5.77,11.78,13.23,22.56,19.38,34.12,12,22.51,22.17,48.3,19.55,74.27-2.16,21.44-14.19,45.2-2.7,65.91,9.32,16.8,29.87,25.15,48.35,25.44,25.06.38,48.38-11.7,71.1-20.68,24.37-9.63,51.27-16.24,76.78-6.89,11.49,4.21,21.94,10.69,32.85,16.12,10.26,5.1,20.94,8.93,32.41,10a83.67,83.67,0,0,0,60.07-18c16.74-13.64,27.14-34.26,29.26-55.65a83.51,83.51,0,0,0-4.2-34.92c-3.92-11.73-9.56-22.79-13.54-34.5a87.74,87.74,0,0,1-4-38.93c1.59-13.44,5.54-26.46,9.87-39.24,8-23.63,17.87-48.48,14.36-73.91-2.74-19.88-13.79-39.31-33.36-46.56-23.84-8.83-49.24,1.75-70.85,11.75-12.28,5.68-24.62,11.14-37.74,14.61-11.14,2.93-23,5-34.56,4.44-14-.65-26.56-6.56-39.27-12a154.6,154.6,0,0,0-21.3-7.59A122.36,122.36,0,0,0,750,282.49a214.74,214.74,0,0,0-36.26,2.56,195.35,195.35,0,0,0-30.18,6.56c-13.71,4.26-26.8,10.6-37.79,19.92a104.43,104.43,0,0,0-11.5,11.54c-.36.42.25,1,.61.61a96.7,96.7,0,0,1,27.65-22.48c16.05-8.62,34.17-12.9,52.1-15.41,21.25-3,43-4,63.86,1.71,13.63,3.74,26,10.54,39.29,15.17a73.13,73.13,0,0,0,19.34,4.07c10.54.65,21.38-1,31.61-3.38,12.41-2.88,24.23-7.52,35.79-12.8,12.21-5.57,24.31-11.51,37.34-14.95,11.6-3.06,24.11-4.12,35.77-.77a46.8,46.8,0,0,1,25.71,18.79c13.07,19.05,12.94,43,7.77,64.64-6.07,25.47-18,49.31-21.39,75.46A87.57,87.57,0,0,0,992.68,471c3.59,11.59,9.08,22.47,13.24,33.85s6.44,23.1,5.69,35.21a83.91,83.91,0,0,1-8.61,32.1,79.38,79.38,0,0,1-49.33,40.9,83.41,83.41,0,0,1-32.32,2.75c-11.92-1.36-22.88-5.81-33.47-11.27-10.29-5.31-20.32-11.29-31.29-15.12a81,81,0,0,0-36.45-3.54c-25.19,3-47.59,15-71.13,23.54-11.7,4.21-23.92,7.58-36.41,8A64,64,0,0,1,683,611.17c-8.68-4.19-16.53-10.62-21.15-19.21-5.39-10.06-5.12-21.68-3.16-32.62,2.06-11.53,5.53-22.8,6.42-34.53.94-12.39-1.14-24.84-4.69-36.68a195.63,195.63,0,0,0-14.06-33.78c-5.85-11.27-13.06-21.76-18.88-33.05-5.72-11.11-10.36-23-11.78-35.45a82.4,82.4,0,0,1,19.17-62.17C635.27,323.26,634.66,322.65,634.3,323.07Z"/><path class="cls-3" d="M615.91,316.72a89.16,89.16,0,0,0-22.9,62.6c.51,12.6,4.08,24.82,8.91,36.39,5.17,12.39,12.23,23.89,17.16,36.36,9.67,24.45,17.84,50.68,18,77.19.11,22.48-7.42,48.77,6.28,68.86C654.84,615,677,622.57,696.7,621.94c26.36-.84,50.52-13.16,75.13-21.2,13.32-4.36,27.15-7.55,41.2-8a94.42,94.42,0,0,1,40,7.23c11.69,4.89,22.53,11.53,34,16.93,10.74,5.06,22,8.64,33.84,9.52a90.09,90.09,0,0,0,62.21-19c17.55-14,28.84-35.1,31.85-57.25a88.37,88.37,0,0,0-2.41-35.3c-3.43-12.51-9-24.28-13.34-36.47-4.58-12.82-7.07-25.84-6.24-39.49.85-14,4.44-27.72,8.63-41.07,7.95-25.27,18.91-51.45,15.89-78.51-2.31-20.69-13.09-41.38-32.84-50.12-23.13-10.23-48.83-2.18-70.76,7.18-13,5.54-25.65,11.7-39.27,15.52a185.91,185.91,0,0,1-40,6.12c-9,.49-17.76.48-26.58-1.57a139.51,139.51,0,0,1-20.37-6.9c-7.07-2.85-14.13-5.75-21.43-8a124.06,124.06,0,0,0-26.73-5.06c-12.37-1-24.79-.07-37.08,1.43A214.9,214.9,0,0,0,670,284.17c-14.94,4.22-29.28,10.68-41.43,20.45a110.69,110.69,0,0,0-12.68,12.1c-.42.46.26,1.15.69.69A103.65,103.65,0,0,1,647,294c17.87-9,37.89-13.1,57.62-15.35,21.1-2.4,42.06-2.21,62.46,4.21,13.73,4.32,26.6,11.25,40.66,14.52,8.11,1.89,16.19,2.11,24.48,1.72A196.45,196.45,0,0,0,870.35,294c25.84-6.37,48.52-21.89,74.71-27,12-2.34,24.73-2.39,36.31,1.89A50.73,50.73,0,0,1,1006.68,290c13,20.84,11.79,46,6,68.93-6.68,26.31-18.61,51.39-20.58,78.77a95.63,95.63,0,0,0,5.09,37.77c4,11.93,9.41,23.34,13.17,35.35a89.78,89.78,0,0,1-5.92,69.1,85.45,85.45,0,0,1-51.58,42.05,89.52,89.52,0,0,1-33.59,3.31c-12.38-1.15-23.91-5.36-35-10.84-10.85-5.36-21.29-11.59-32.54-16.1a94.24,94.24,0,0,0-37.89-6.62c-26.6.75-50.76,11.48-75.47,20.09-12.39,4.32-25.13,8-38.26,9a71.08,71.08,0,0,1-32-4.85c-9.56-3.86-18.5-10.09-24.25-18.77-6.35-9.58-7.85-21.27-7.64-32.52.23-12.48,2-24.88,1.78-37.39-.26-12.85-2.52-25.63-5.68-38.06a306.33,306.33,0,0,0-11.79-36.07c-4.72-12-11.36-23.15-16.53-35s-9.22-24.47-10-37.5a86.54,86.54,0,0,1,5-33.75,88.14,88.14,0,0,1,17.58-29.48C617,316.94,616.33,316.25,615.91,316.72Z"/><path class="cls-4" d="M597.65,309.83c-16.2,17.17-26,40.38-26.29,64.07-.14,13.47,3,26.72,7.47,39.35,2.23,6.34,4.78,12.57,7.47,18.72a159.15,159.15,0,0,1,7.11,19.86c7.49,26,14.24,52.62,16.48,79.64,1.89,22.73-.52,48.95,13.28,68.63,12.56,17.92,36.44,25.69,57.55,25,27.19-.89,52.4-13.05,78.16-20.37,28-7.94,57.6-9.46,84.88,1.86,12.39,5.14,23.92,12.06,36,17.81,11.14,5.3,22.74,9.32,35.07,10.58A96.57,96.57,0,0,0,981,617.15c18.62-13.65,31.34-34.41,36-56.93a94.09,94.09,0,0,0,.65-35.28c-2.31-13.32-7.5-25.88-12.19-38.49C1000.62,473.36,996.4,460,996,446c-.45-14.56,2.38-29,6.22-43,7.41-27,19.41-53.79,18.43-82.32-.75-21.73-10.12-44.46-29.33-56.08-21.77-13.16-48.59-8.41-71.09.05-13.4,5-26.26,11.42-39.74,16.27a153.6,153.6,0,0,1-41.89,8.42c-7.1.48-14.21.65-21.32.75a160.31,160.31,0,0,1-16.11-.21,98.68,98.68,0,0,1-23.37-5.33c-7.43-2.55-14.69-5.54-22.13-8a138.71,138.71,0,0,0-26.2-6.21,160.43,160.43,0,0,0-36.19-.16,238.74,238.74,0,0,0-35.75,5.94c-16.48,4.17-32.42,10.79-46,21.18a121.51,121.51,0,0,0-13.87,12.58c-.48.5.29,1.27.77.76a112.26,112.26,0,0,1,33.71-24.52c19.85-9.28,42-13.17,63.63-15.08a152.2,152.2,0,0,1,35.63.66A141.93,141.93,0,0,1,756.74,278c14.4,5,28.33,11.39,43.66,12.87a142.09,142.09,0,0,0,15.58.29c6.71-.09,13.41-.22,20.11-.61,13.67-.8,27.21-2.81,40.25-7.09,25.52-8.37,49.11-23.52,76.41-25.73,12.35-1,25.14.67,36.12,6.7,10,5.47,17.69,14.2,22.78,24.3,11.87,23.56,8.33,50.22,1.44,74.68-7.56,26.82-18.87,53.32-18.23,81.69.6,26.83,15.13,49.89,20.87,75.54a95.3,95.3,0,0,1-12,70.16,91.79,91.79,0,0,1-55.3,40.48,95.49,95.49,0,0,1-35.31,2.41c-12.84-1.56-24.79-6.24-36.31-12s-22.62-12.21-34.57-16.94a110.14,110.14,0,0,0-39.39-7.62,152.42,152.42,0,0,0-40.56,5.48c-13,3.44-25.61,8.17-38.39,12.3s-26.08,7.8-39.62,8.84a77.94,77.94,0,0,1-34.79-5.2c-10.08-4-19.56-10.51-25.73-19.57-6.53-9.6-9.27-21.21-10.5-32.6-1.32-12.28-1.32-24.66-2.45-37A320.75,320.75,0,0,0,604.57,491c-2.81-12.92-6.16-25.73-9.81-38.44a149.15,149.15,0,0,0-6.15-18c-2.75-6.38-5.51-12.75-7.9-19.28-4.7-12.82-8.18-26.25-8.26-40a92,92,0,0,1,6.65-34.44,96,96,0,0,1,19.32-30.27C598.9,310.09,598.14,309.32,597.65,309.83Z"/><path class="cls-5" d="M579.56,302.94c-17.34,17.54-28.46,41.33-29.81,66.05-.77,14.14,1.8,28.22,5.73,41.75,2,6.87,4.41,13.57,6.76,20.32,2.26,6.5,3.54,13.15,4.92,19.87,5.63,27.52,11.52,55,15.57,82.85,3.37,23.17,5.32,48,19.35,67.71,13.62,19.08,38.79,27.29,61.45,26.85,28.17-.55,54.63-12.69,81.57-19.47,28.95-7.29,59.48-7.52,87.52,3.58,25.28,10,47.62,27.12,75.14,30.94a103.12,103.12,0,0,0,68.51-14.8c20.54-13,35.39-33.56,42.14-56.81a101.53,101.53,0,0,0,3.86-35.31c-1-14.21-5.43-27.75-10.2-41.08s-9.92-26.75-11.92-40.86c-2.15-15.06-.35-30.38,3-45.14,6.55-29.26,19.54-57.28,20.38-87.64.63-22.6-7.23-46.75-25.61-61-20.28-15.71-48.06-14.52-71.37-7.17-13.93,4.41-27.18,10.6-40.69,16.12-14,5.73-28.31,10.19-43.44,11.75-14.55,1.5-29.21.92-43.81.68-10.13-.17-19.84-.57-29.7-3.09-16.91-4.3-32.76-11.72-50-14.75-24.16-4.25-49.61-1.65-73.4,3.72-18,4.07-35.61,10.77-50.63,21.73a129.3,129.3,0,0,0-15.24,13.19.6.6,0,0,0,.84.85A120.34,120.34,0,0,1,617.91,278c21.58-9.32,45.84-13.34,69.2-14.41a142.8,142.8,0,0,1,33.79,2.28,190.67,190.67,0,0,1,25.78,7.31c7.55,2.61,15.07,5.35,22.83,7.26,9.35,2.29,18.57,2.71,28.16,2.86,14,.23,28.1.8,42.1-.42a148.88,148.88,0,0,0,41.34-10c25.49-9.91,50.48-23.78,78.6-23.32,12.48.21,24.95,3.37,35.28,10.57,9.93,6.92,17.22,17.12,21.65,28.31,10.27,25.92,4.54,53.79-3,79.6-8.08,27.51-18.44,55.71-14.86,84.88,3.41,27.78,19.12,52.39,22,80.27a102,102,0,0,1-18.57,69.34c-14.43,20.13-36.4,33.71-60.6,38.6a100.24,100.24,0,0,1-37.19.54C891.3,639.33,879.09,634,867.26,628s-23.43-12.56-35.85-17.29a128.24,128.24,0,0,0-41-8.23,159.69,159.69,0,0,0-42.28,4.42c-13.68,3.2-27,7.8-40.41,11.79s-27.12,7.57-41.1,8.34a85.57,85.57,0,0,1-37-6.06c-10.65-4.36-20.3-11.16-26.94-20.65s-10.48-20.07-13-31.14c-2.76-12-4.14-24.35-5.94-36.55-2-13.79-4.55-27.5-7.2-41.18-2.55-13.12-5.25-26.21-7.93-39.3-1.36-6.61-2.5-13.28-4.65-19.69-2.28-6.79-4.8-13.48-6.85-20.35-4-13.5-6.79-27.5-6.25-41.65A98.05,98.05,0,0,1,559.64,334a103.79,103.79,0,0,1,20.76-30.21C581,303.24,580.1,302.39,579.56,302.94Z"/><path class="cls-6" d="M561.64,296.05c-18.36,17.78-30.71,41.89-33.39,67.39-1.57,14.87.31,29.85,3.62,44.36,1.77,7.78,4.26,15.36,6.06,23.12,1.51,6.5,2,13.24,2.89,19.85,4,28.64,9.29,57.09,14.83,85.47,4.6,23.53,9.8,48,25,67.18,15.57,19.65,40.88,28.36,65.43,28.17,29.55-.22,57.5-12.6,86-18.9,30.41-6.73,62-5.33,91.15,6.2,26.17,10.38,49.49,28,77.71,32.82a109.53,109.53,0,0,0,72-12.81c21.73-12.38,38.11-32.53,46.62-56a109.13,109.13,0,0,0,6.59-36.7c0-14.4-3.28-28.34-7.69-42-4.53-14-10-27.74-13.17-42.14-3.42-15.52-3.11-31.24-.43-46.86,5.22-30.42,18.45-59.07,21.21-90,2.2-24.58-3.71-51.22-22.47-68.49s-46-19.15-70-13.7C904,249.85,877.85,267.21,848,273.16c-15.13,3-30.61,2.8-46,2.06-7.51-.36-15-.84-22.54-1.12A165.33,165.33,0,0,1,762,273c-18.23-2.62-35.16-10.44-53.09-14.35-24.8-5.4-50.6-3.5-75.32,1.48-19.4,3.91-38.39,10.58-54.79,21.86a138.52,138.52,0,0,0-17.12,14.1c-.61.59.31,1.52.92.93A128.81,128.81,0,0,1,604,270a176.1,176.1,0,0,1,32.19-9.12,224.34,224.34,0,0,1,41.91-4.28,144.85,144.85,0,0,1,32.79,3.8c8.86,2.08,17.48,5,26.14,7.74a150.77,150.77,0,0,0,25.69,6.22,156.9,156.9,0,0,0,15.78,1c7.53.26,15,.74,22.56,1.11,14.52.72,29.14,1,43.52-1.39,14.69-2.44,28.62-7.83,42.28-13.56,25.48-10.69,51.8-22.63,80.15-19.41,12.9,1.47,25.34,6.36,35.07,15.09,9.26,8.33,15.67,19.43,19.31,31.27,8.59,27.94.88,57-7.07,84.1-8.31,28.36-16.79,57.52-10.89,87.24,5.65,28.47,20.79,54.54,21.35,84.06a108.5,108.5,0,0,1-24.27,70c-16.17,19.75-39.58,32.56-64.7,36.61a105.1,105.1,0,0,1-38.37-.82c-13.56-2.87-26.2-8.68-38.49-14.93S834.78,621.9,822,617a148.42,148.42,0,0,0-43.18-9.47,165.08,165.08,0,0,0-43.57,3.15c-14.24,2.9-28.12,7.32-42.11,11.21s-28.26,7.53-42.77,8.27A95.22,95.22,0,0,1,611.06,624a68.73,68.73,0,0,1-29-20.93c-7.33-9.09-12.5-19.63-16.22-30.65-4.11-12.18-6.63-24.82-9.1-37.41-2.69-13.75-5.3-27.53-7.74-41.33s-4.73-27.7-6.69-41.61c-.92-6.51-1.38-13.18-2.71-19.63-1.54-7.49-4-14.77-5.82-22.21-3.56-14.79-5.73-30-4.37-45.24a105.26,105.26,0,0,1,10.7-37.28A112.2,112.2,0,0,1,562.56,297C563.17,296.39,562.24,295.47,561.64,296.05Z"/><path class="cls-7" d="M543.85,289.17c-19.75,18.35-33.54,43.4-37.26,70.2-2.13,15.33-1,30.85,1.62,46,1.37,8,3.63,16,4.58,24.07.79,6.75.81,13.63,1.38,20.41a606.87,606.87,0,0,0,14.21,87.74c5.66,24,13.21,48.32,29.68,67.33a80.44,80.44,0,0,0,29.29,21.74,104.9,104.9,0,0,0,39.27,8.17c30.66.56,60-11.68,89.56-17.85A168.5,168.5,0,0,1,810,623.75c27.76,10.36,52.24,28.84,81.39,35.56,25.26,5.81,52.36,2.35,75.62-9a111.29,111.29,0,0,0,52.59-54.54,117,117,0,0,0,9.85-37.44c1.29-14.32-.48-28.49-4.14-42.35-3.88-14.73-9.44-28.94-13.57-43.59-4.35-15.43-6.34-31-5-47,2.88-33.12,17.09-63.82,21.59-96.62,3.52-25.73,0-53.46-17.48-73.79s-44.46-25.29-69.83-21.63c-30.49,4.4-57.25,21-86.37,30a145.09,145.09,0,0,1-48.14,5.91c-16.12-.55-32.14-2.67-48.25-3.38a141.12,141.12,0,0,1-30.76-4.75c-9.35-2.51-18.54-5.58-27.93-7.93-25.36-6.34-51.1-5.61-76.73-1.13-21.25,3.72-42.17,10.43-60.32,22.34a147.9,147.9,0,0,0-18.72,14.75c-.68.63.33,1.63,1,1A137.36,137.36,0,0,1,590.73,262,191.64,191.64,0,0,1,625.85,253c14.18-2.32,28.63-3.73,43-3a159.45,159.45,0,0,1,32.84,5.23c9.12,2.4,18.08,5.39,27.2,7.76a140.78,140.78,0,0,0,29.42,4.35c15.62.68,31.15,2.69,46.77,3.32,15.29.62,30.45-.47,45.24-4.53C865.38,262,879.66,255.58,894,249.6c25.7-10.67,53.46-20.35,81.56-13.91a63.67,63.67,0,0,1,33.25,19.17c8.64,9.56,14.23,21.59,17.11,34.09,7,30.66-3.17,61.66-11.36,91-4.17,14.91-7.89,30-9.23,45.49a128.28,128.28,0,0,0,4.24,44.63c3.86,14.4,9.27,28.32,13.33,42.66,4,14.1,6.28,28.52,5.28,43.19a114.5,114.5,0,0,1-31.09,70.84c-18.25,19-43.51,30.74-69.68,33.34A110.41,110.41,0,0,1,888.17,657c-14.24-3.79-27.5-10.38-40.54-17.1-12.8-6.6-25.55-13.36-39.13-18.26a167.51,167.51,0,0,0-43.82-9.5A170.43,170.43,0,0,0,720,614.81c-15,2.84-29.65,7.24-44.42,11.05s-30,7.37-45.31,7.59A104.66,104.66,0,0,1,589.42,626c-23-9.38-38.94-29.3-48.36-51.79-5.12-12.23-8.52-25.07-11.54-38-3.33-14.23-6.11-28.59-8.45-43s-4.24-28.85-5.47-43.38c-.58-6.78-.6-13.66-1.39-20.41-.84-7.24-2.79-14.32-4.1-21.48-2.88-15.69-4.31-31.75-2.23-47.64a113.6,113.6,0,0,1,12.38-38.2,121,121,0,0,1,24.6-32C545.53,289.56,544.52,288.55,543.85,289.17Z"/><path class="cls-8" d="M526.1,282.3c-20.89,18.64-36,44.1-41.1,71.73-3,16.27-2.66,32.89-.69,49.26,1,8.32,2.89,16.65,2.87,25,0,7-.12,14,.18,21.06A418.92,418.92,0,0,0,501,538.79c6.62,25,16.2,49.61,34.3,68.59A93.63,93.63,0,0,0,565.35,629a114.28,114.28,0,0,0,41.27,9.11c31.87,1.26,62.42-10.73,93.25-16.88a179.1,179.1,0,0,1,48.39-3.33,182.65,182.65,0,0,1,47.82,10.38c29.43,10.52,55.25,29.57,85.42,38.2,26.26,7.51,54.81,5.35,79.92-5.27a117.33,117.33,0,0,0,58.22-53.71,122.71,122.71,0,0,0,11.47-81.34c-6.39-31.55-21.81-60.88-21.18-93.7.66-34.29,14.53-66.14,20.43-99.53,4.9-27.7,3.44-57.88-14.09-81.15-16.22-21.52-42.51-29.29-68.59-27.31-31.39,2.38-59.18,17.95-88.2,28.65-15.77,5.81-31.92,9.76-48.77,10.16-16.4.39-32.7-1.85-49-3.64-13.51-1.48-27.23-1.57-40.61-4.11-10.23-1.94-20.2-5-30.25-7.61a189.77,189.77,0,0,0-33.41-6c-14.68-1.14-29.4,0-43.94,2.11-23.51,3.45-46.78,10.17-67,22.86a156.18,156.18,0,0,0-20.4,15.42c-.75.65.35,1.74,1.08,1.08a147.07,147.07,0,0,1,50.57-29.46,209.79,209.79,0,0,1,38.11-8.69c14.58-2,29.31-2.95,44-1.57,21.33,2,41.23,9.83,62.18,13.62,13.09,2.36,26.5,2.47,39.71,3.92,15.93,1.75,31.88,3.93,47.94,3.66A146.05,146.05,0,0,0,855,256.35c15.47-5.34,30.33-12.27,45.56-18.24,25.82-10.11,54.72-17.3,82-8.46,27,8.73,43.41,33.34,47.63,60.56,5,32.1-6.49,63.64-14.3,94.29-4,15.69-7.25,31.74-7.56,48-.29,15.42,2.74,30.39,7.06,45.13,4.4,15,9.85,29.78,13.33,45.07a122.89,122.89,0,0,1,2.18,45.09c-3.91,26.86-17,52.44-37,70.85-20.25,18.61-47.29,29.37-74.7,30.68a117.21,117.21,0,0,1-42-5.7c-14.51-4.73-28.09-11.84-41.61-18.84s-26.86-13.68-41.14-18.63a183.43,183.43,0,0,0-45.3-9.67,175.23,175.23,0,0,0-45.38,2.47c-15.44,2.79-30.54,7.09-45.78,10.76-15.59,3.76-31.49,7.13-47.6,7a115,115,0,0,1-42.17-8.07c-52.69-21.39-67.38-84.44-75-134.82a412,412,0,0,1-4.44-45.3c-.27-6.73-.16-13.43-.15-20.16,0-8.06-1.74-16-2.73-24-2.07-16.57-2.55-33.43.51-49.9A122.76,122.76,0,0,1,501,315.56a130.65,130.65,0,0,1,26.2-32.18C527.92,282.72,526.83,281.64,526.1,282.3Z"/><path class="cls-9" d="M508.64,275.42c-22.15,19-38.54,45-45.08,73.57-3.8,16.55-4.38,33.61-3.27,50.51.54,8.27,1.85,16.59,1.3,24.89-.47,7.36-1,14.68-1,22.07a342.14,342.14,0,0,0,12.74,92.31c7.35,26.19,18.69,51.68,38.41,70.94a108.45,108.45,0,0,0,31.1,21.68,123.11,123.11,0,0,0,42.33,10c33.46,2.13,65.5-9.6,97.91-15.91,16.47-3.2,33.11-4.67,49.87-3.39a193.85,193.85,0,0,1,49.38,10.66c30.89,10.81,58,30.11,89,40.51A127.67,127.67,0,0,0,955.53,672a123.82,123.82,0,0,0,63.27-51.61,128.32,128.32,0,0,0,18-82.43c-4.15-32.9-20.48-63.14-22.71-96.39-2.39-35.63,10.95-69.36,18.15-103.68,6.11-29.15,7-60.89-9.22-87.11A70.71,70.71,0,0,0,993.55,224c-12.06-5.76-25.51-8-38.82-7.92-31.85.27-60.56,14.31-89.47,26-15.92,6.46-32.32,12.27-49.46,14.35-16.65,2-33.43.47-50-1.69-8.55-1.12-17.08-2.4-25.64-3.44-7.84-1-15.71-1.4-23.56-2.17-11.59-1.14-22.89-3.89-34.16-6.72s-22.38-5.47-33.84-6.83a184.7,184.7,0,0,0-44.64.56c-25.28,3.14-50.4,9.69-72.47,22.73a164.12,164.12,0,0,0-22.87,16.5c-.81.69.36,1.85,1.16,1.17A157,157,0,0,1,565,246a228,228,0,0,1,43.22-8.65,176.71,176.71,0,0,1,43.36.31c22.09,3,43.17,11.08,65.41,13.21,7.73.74,15.46,1.19,23.18,2.13,8.2,1,16.38,2.22,24.58,3.3,16.19,2.14,32.58,3.75,48.89,2.07,33.36-3.44,63-20.55,94.14-31.55,26.32-9.3,57-13.89,83.36-2.1,26.56,11.89,40.92,39.32,43.28,67.4,2.89,34.26-10.09,67.07-17.24,100-3.51,16.21-5.86,32.86-4.74,49.47,1.06,15.88,5.4,31.29,10,46.43,4.71,15.43,9.83,30.85,12.25,46.85a124.28,124.28,0,0,1-1.39,44.8c-5.95,27.58-21.07,53.17-43.06,71-22.27,18-51,27.73-79.61,27.59A127.22,127.22,0,0,1,867,669.94c-15-5.56-29.09-13.21-43.27-20.54C795.5,634.81,766,623.09,734,620.49a182.47,182.47,0,0,0-47.18,2.59c-16.22,2.91-32.12,7.27-48.19,10.86-16.24,3.63-32.65,6.54-49.36,6-15.28-.53-30.71-3.47-44.77-9.58-53.5-23.28-71.7-85-79-137.91a333.36,333.36,0,0,1-3.26-46c0-7,.36-14,.89-21,.64-8.3-.57-16.57-1.15-24.84-1.19-17.12-.71-34.4,3.14-51.18a133.32,133.32,0,0,1,16.35-39.67,140.61,140.61,0,0,1,28.3-33.16C510.61,275.9,509.44,274.73,508.64,275.42Z"/><path class="cls-10" d="M492.73,268.55c-23.16,19.19-40.73,45.31-48.87,74.34-4.83,17.2-6.42,35.1-6.15,52.92.14,9.16.73,18.19-.52,27.3A219.14,219.14,0,0,0,435.38,445a300.51,300.51,0,0,0,12.29,95.28c7.91,26.71,20.56,52.29,41.12,71.54a123.14,123.14,0,0,0,32.24,22c13.75,6.33,28.79,9.65,43.83,10.87,35,2.84,68.41-8.44,102.37-15,17-3.27,34.16-5,51.48-3.71a201,201,0,0,1,51,10.88c16.38,5.64,31.95,13.12,47.3,21.1,14.78,7.69,29.49,15.63,45.09,21.55,28.43,10.78,59.21,12.25,88.35,3.26a130.5,130.5,0,0,0,68.9-50.05,135.21,135.21,0,0,0,24-82.3c-1.57-34.59-17.75-66.17-22.68-100.15-5.39-37.11,7.11-72.77,15.14-108.47,6.91-30.68,9.73-63.89-5.45-92.66a75.07,75.07,0,0,0-27.81-29.7c-11.95-7.07-25.71-10.46-39.49-11.21-32.32-1.75-62,10.83-91.23,23-16.09,6.71-32.33,13.35-49.4,17.14-17.63,3.93-35.5,3.82-53.37,1.74-17.24-2-34.27-5.49-51.51-7.5-7.87-.92-15.78-1.29-23.62-2.46-6-.89-11.89-2.08-17.78-3.38-11.84-2.62-23.61-5.6-35.64-7.35a182.61,182.61,0,0,0-44.63-.88c-27.24,2.76-54.46,9.33-78.44,22.89a175.6,175.6,0,0,0-24.7,17.15c-.88.72.38,2,1.25,1.25a167.2,167.2,0,0,1,60.25-31.75c29-8.32,60.08-11.26,89.92-6.32,11.62,1.93,23,4.91,34.55,7.37,12.9,2.75,25.77,3.71,38.84,5.24,33.62,3.93,67,13.09,100.94,6.62s64.22-24.77,97.19-34.7c27-8.13,58.52-10.47,84,3.54,26.4,14.53,39.14,44.35,40,73.45,1.11,36.16-12.79,70.29-19,105.41-3,16.75-4.23,33.79-1.92,50.7,2.25,16.43,7.21,32.3,11.92,48.14,5,16.66,9.74,33.55,10.78,51a130.39,130.39,0,0,1-4.74,43.14c-8.07,28.6-25.65,54.46-50.07,71.54a133.67,133.67,0,0,1-83.77,23.61c-32.8-1.93-61.27-18.19-89.84-32.86-29.22-15-60.24-27-93.26-29.65-34.2-2.7-66.73,7.11-99.84,14-16.79,3.47-33.64,5.83-50.82,4.91-15.54-.83-31.22-3.9-45.52-10.17-24.33-10.65-44.31-30-57.47-52.89-15.48-26.89-23-58.4-26.8-89a291.11,291.11,0,0,1-2.18-46.66c.28-7.61,1-15.18,2-22.72,1.13-8.23.5-16.51.34-24.78-.34-18.05,1.18-36.17,6.07-53.61A143.93,143.93,0,0,1,464,303.18a151.4,151.4,0,0,1,30-33.38C494.85,269.07,493.6,267.83,492.73,268.55Z"/><path class="cls-11" d="M477.39,261.68a162.24,162.24,0,0,0-53.23,76.83c-5.46,17.2-7.94,35.17-8.56,53.17-.32,9.47-.41,18.7-2.13,28.05A203.2,203.2,0,0,0,410.7,442a275.28,275.28,0,0,0,11.44,98.6c8.46,27.81,22.36,54.14,44.15,73.79,21.95,19.79,49.32,31,78.65,33.64,17.74,1.61,35.41.24,52.9-2.95,18.26-3.32,36.25-8,54.49-11.42,18-3.39,36.08-5.29,54.36-3.87a207.85,207.85,0,0,1,52,11.36c17.11,6,33.47,13.72,49.52,22.07,15.09,7.86,30,16,45.78,22.52,15,6.17,30.72,10.48,47,11.6a141,141,0,0,0,45.14-4.27,137.31,137.31,0,0,0,74-48.36,142.16,142.16,0,0,0,29.56-83.56c.67-35.53-14.57-68.23-21.33-102.52a164.41,164.41,0,0,1-.81-56.71c2.8-18.53,7.76-36.62,12-54.84,7.59-32.33,12.6-67.05-1.19-98.49A80,80,0,0,0,1011.44,215c-11.52-8.08-25.14-12.55-39-14.22-32.29-3.88-63,6.86-92.38,19-16.93,7-33.77,14.47-51.39,19.64a153.7,153.7,0,0,1-54.36,6c-18.36-1.27-36.39-5.11-54.5-8.18-15.85-2.7-31.92-3.59-47.74-6.38-12.77-2.26-25.36-5.39-38.15-7.51A195.07,195.07,0,0,0,590,220.88c-29.34,1.8-59.16,8.62-85.19,22.55a184.39,184.39,0,0,0-27.46,18.25c-.95.75.39,2.07,1.32,1.33,44.13-35,104-47.09,158.93-37.13,12.46,2.26,24.77,5.3,37.28,7.34,6.56,1.07,13.14,1.7,19.75,2.36,9.23.91,18.4,2.36,27.53,3.95,16.9,2.94,33.77,6.37,50.9,7.66a153.35,153.35,0,0,0,51.5-4.7c33.87-9.06,64.47-27.51,98.5-36,28.2-7.05,60.74-7.59,85.83,9.06,26.59,17.65,37,50.26,36.33,80.89-.8,37.1-15.11,72.11-20.06,108.63a162.79,162.79,0,0,0,.89,51.8c3.17,17.15,8.62,33.75,13.27,50.53s8.52,34.14,8.45,51.78a138,138,0,0,1-7.41,43.74c-9.89,29.18-29.36,54.84-55.47,71.35a140,140,0,0,1-88,20.88c-34-3.38-63.55-21.15-93.32-36.38-30-15.35-62-27.9-95.81-30.75-35.68-3-69.87,7.33-104.49,14.14-33.53,6.59-69.89,7.69-101.66-6.81A135.43,135.43,0,0,1,442,581.77c-16.58-27.51-24.74-60.07-28.27-91.76a265,265,0,0,1-1.13-48.53,198.86,198.86,0,0,1,2.94-22.69c1.66-8.78,1.62-17.61,1.91-26.51,1.1-33.9,9.59-66.73,29-94.83A163.27,163.27,0,0,1,478.71,263C479.65,262.25,478.32,260.93,477.39,261.68Z"/><path class="cls-12" d="M462.12,254.81A174.94,174.94,0,0,0,404.79,333c-6.35,17.55-9.78,36-11.27,54.56-.79,9.76-1.57,19.23-3.75,28.8a189.15,189.15,0,0,0-3.6,22.06c-3.57,33.6.21,68.42,9.92,100.73,8.73,29,23.45,56.36,46.16,76.82,22.36,20.13,50.42,32,80.23,35.35a204.93,204.93,0,0,0,55.3-1.74c18.77-3.06,37.23-7.68,55.89-11.31s37.81-6.2,57-5.1a204.89,204.89,0,0,1,52.63,10.58c17.86,5.94,35,13.78,51.77,22.38,15.88,8.17,31.45,17,47.74,24.3,15.56,7,31.81,12.62,48.79,14.87A145.7,145.7,0,0,0,938,703.91c30.93-5.91,59.86-21.69,80.82-45.28a148.83,148.83,0,0,0,36.47-83.83c3.56-36.57-10-70.53-18.34-105.45-4.59-19.14-6.61-38.3-4.8-58s6.45-38.65,11-57.71c8.09-34.27,15.48-70.84,3.12-105.06-5.14-14.21-13.51-27.32-25.17-37-11.15-9.31-24.73-15.12-39-17.78-31.74-5.94-63.43,2.58-92.8,14.24C854.27,222,819.58,239.79,781,240.12c-18.73.15-37.24-3.17-55.56-6.73-18.05-3.51-36-6.52-54.22-8.64-14.06-1.63-27.88-4.7-41.8-7.17-14.77-2.63-29.66-4.32-44.69-4-31.41.6-63.82,7.58-92,21.77a193.53,193.53,0,0,0-30.46,19.34c-1,.77,0,2.49,1,1.71a190.12,190.12,0,0,1,71.78-34.24,230.79,230.79,0,0,1,52.39-6.63c14.84-.07,29.52,1.81,44.1,4.49,13.18,2.41,26.3,5.2,39.62,6.75,18.5,2.15,36.62,5.26,54.9,8.8,17.29,3.35,34.77,6.43,52.43,6.56s35.15-3.29,52-8.75c33.71-10.91,65.06-29.14,100-36.29,29.59-6.06,63.47-4.69,88,15,26.22,21,34.13,55.84,32,88-2.48,37.84-16.88,73.69-20.35,111.41a174.56,174.56,0,0,0,4,54.91c4,17.56,9.63,34.68,13.89,52.17,4.17,17.1,6.74,34.51,5.56,52.14a145.74,145.74,0,0,1-11.36,47.12,141.5,141.5,0,0,1-61.53,68.7c-28.07,15.46-61.44,21.54-93.11,16.31-35.13-5.81-65.63-25.31-96.93-41-30.78-15.43-63.68-28.08-98.33-30.42-36.64-2.48-72,8.48-107.65,15-34.63,6.37-71.94,6.47-104.61-8.16a142,142,0,0,1-63.05-55.77c-17.22-28.18-25.77-61.58-28.95-94.22a247.2,247.2,0,0,1,0-49.78,187.55,187.55,0,0,1,4-23.52c2-8.6,2.58-17.31,3.26-26.11,2.72-35.27,13.09-69.2,34.19-97.9a175.09,175.09,0,0,1,33.93-34.69C464.54,255.44,463.12,254,462.12,254.81Z"/><path class="cls-13" d="M447.12,247.78a188.56,188.56,0,0,0-61,78A217.37,217.37,0,0,0,371.75,381c-1.31,9.95-2.25,19.85-5,29.54a180.29,180.29,0,0,0-5,24.23c-4.76,34.28-1.43,70,8.36,103.16,9,30.55,24.67,59.14,48.64,80.49C441.86,639,470.86,651.44,501.53,655a223.15,223.15,0,0,0,56.74-1.09c19.71-2.76,39-7.77,58.53-11.69,19.33-3.89,38.83-6.61,58.59-5.49a220.51,220.51,0,0,1,54.94,10.61,362.3,362.3,0,0,1,52.89,22.36c16.75,8.53,33.08,17.88,50.06,26,16.31,7.76,33.32,14.35,51.16,17.52a150.79,150.79,0,0,0,47.83.65c32.22-4.64,63-19.54,85.93-42.73a154.62,154.62,0,0,0,42.41-84.91,157.71,157.71,0,0,0-.89-50.84c-3.29-18.9-9.06-37.23-13.89-55.77-5-19.16-8.75-38.55-8.22-58.44.56-20.64,4.75-41,9.31-61,8.22-36.2,17.62-74.23,6.95-111-4.35-15-12-29.22-23.12-40.29a84.94,84.94,0,0,0-38.37-21.45c-30.79-8.1-63.58-1.92-92.9,8.82-37.07,13.58-72.87,33.83-112.82,37.57-39,3.65-76.68-9.81-114.85-15.33-8.64-1.25-17.34-2-26-3.33-7.31-1.13-14.59-2.45-21.88-3.71-15.23-2.62-30.52-4.78-46-5-33.12-.39-67.44,6.58-97.37,20.89a204,204,0,0,0-33.48,20.4c-1.07.8,0,2.62,1.06,1.82a201.87,201.87,0,0,1,77.49-35.3,230.75,230.75,0,0,1,54.56-5.68c15.53.36,30.85,2.71,46.12,5.37,15.79,2.75,31.64,4.48,47.46,6.91,18.47,2.83,36.63,7.31,55,10.78,17.78,3.35,35.9,5.74,54,4.54,18.69-1.23,36.84-6.3,54.36-12.72,33.89-12.44,66.29-30.23,102.35-35.78,30.63-4.72,64.69-.92,88.18,21.14,25.58,24,31.24,60.82,27.94,94.24-3.87,39.39-18.71,77-20.08,116.72-1.32,38,13.54,73.16,21,109.85,6.82,33.77,3.69,68.09-11.29,99.32a147.47,147.47,0,0,1-67.49,68.61c-29.84,14.72-64.64,19.56-97.25,12.7-36.14-7.61-67.54-28.13-100.16-44.38-31.75-15.83-65.6-28.33-101.23-31-38.32-2.9-74.87,9-112.17,15.54-35.79,6.29-74.25,5.91-108-8.83a148.35,148.35,0,0,1-65.8-56.82c-18.39-29-27.51-63.84-30.41-97.85a232.48,232.48,0,0,1,1.15-52.2,180.4,180.4,0,0,1,4.95-23.68c2.5-8.83,3.53-17.82,4.64-26.9,4.37-35.63,16.36-69.77,38.27-98.45a187.6,187.6,0,0,1,36.47-36.11C449.25,248.8,448.2,247,447.12,247.78Z"/><path class="cls-14" d="M432,240.91a202.61,202.61,0,0,0-65.83,80.93,231.33,231.33,0,0,0-16.45,55.4c-1.69,9.92-3.21,19.76-6.31,29.37a174.82,174.82,0,0,0-6,24.41c-6,35.26-3,72.34,7,106.59,9.2,31.42,25.42,60.65,49.95,82.66a156.55,156.55,0,0,0,83.79,38.35c19.78,2.64,39.91,2.14,59.68-.29,20.45-2.52,40.52-7.36,60.7-11.36,20.5-4.07,41.3-7.46,62.26-7,19.1.46,38,4.21,56.11,10,37.82,12.15,71.44,33.13,106.81,50.68,16.55,8.22,33.72,15.5,51.78,19.68a155.75,155.75,0,0,0,50.84,3.13c33.16-3.41,65.28-17.08,90.12-39.42s42.1-53.16,48.93-85.93a158.28,158.28,0,0,0,1.95-52.64c-2.48-19.27-7.85-38-12.84-56.73-5.29-19.86-10.21-40-10.72-60.66-.53-21.35,3.13-42.52,7.54-63.33,8-37.8,18.77-76.83,9.72-115.5-3.73-16-10.8-31.28-21.71-43.62a86.23,86.23,0,0,0-38.17-24.62c-30.46-9.88-64.48-5.3-94.29,4.7-38.13,12.8-73.81,33.42-113.74,40.58-40.82,7.32-80.29-5.11-120-13-17.75-3.53-35.76-5.28-53.61-8.14-15.92-2.54-31.86-5.06-48-5.68-35.15-1.34-71.59,5.51-103.61,20.2a215.09,215.09,0,0,0-36,21.16c-1.14.83,0,2.74,1.12,1.91a214.66,214.66,0,0,1,84.5-36.53,232.76,232.76,0,0,1,56.3-4.42c16.24.78,32.27,3.47,48.31,6,17.67,2.8,35.46,4.57,53,8.15,19.13,3.91,38.06,8.84,57.35,12,18.07,2.92,36.38,4.08,54.58,1.56,19.57-2.7,38.39-9,56.69-16.28,34.06-13.46,67.38-30.5,104.29-34.44,31.6-3.37,65.65,2.62,88.16,26.77,25.14,27,28.8,66,24.31,101-5.16,40.28-19.7,79.17-19,120.18.64,39.08,16.84,75.43,22.85,113.65a159.38,159.38,0,0,1-17.62,101.76,153.36,153.36,0,0,1-73.48,66.9,157.5,157.5,0,0,1-100.85,8.3c-37-9.44-69.33-30.79-103.11-47.67-32.75-16.37-67.67-30.06-104.65-31.78-40-1.85-78.45,10.78-117.53,16.88-36.83,5.76-75.81,5.22-110.44-9.92A155.27,155.27,0,0,1,368,585.48c-19-30-28.36-66-30.76-101.22a223.08,223.08,0,0,1,2.34-52.65,175.3,175.3,0,0,1,6-24.42c3-9.39,4.57-19,6.2-28.71,6.17-36.67,20.4-71.58,44.08-100.46a201.71,201.71,0,0,1,37.3-35.2C434.21,242,433.11,240.07,432,240.91Z"/><path class="cls-15" d="M416.81,234a217.59,217.59,0,0,0-70.42,83,244,244,0,0,0-18.79,56.16c-2.09,10-4.15,19.88-7.64,29.52a171.93,171.93,0,0,0-7.07,25.71c-6.92,35.62-4.31,73.32,5.63,108.13,9.41,33,26.48,63.48,52.22,86.44a163.35,163.35,0,0,0,87.09,39.85c42,5.6,82.94-3.57,123.9-11.74,21-4.18,42.23-7.81,63.69-7.72,20.23.09,40.22,3.83,59.45,10,38.77,12.4,73.37,33.87,109.36,52.34,17.29,8.87,35.14,16.93,54,22a162.3,162.3,0,0,0,53.51,5.19,167,167,0,0,0,94-37.1c26.74-22,45.75-53,54.32-86.47a163,163,0,0,0,4.76-51.58c-1.41-20.22-6.43-39.94-11.55-59.48-5.38-20.55-11-41.21-12.73-62.46-1.77-21.91,1.15-43.82,5.29-65.31,7.66-39.76,19.76-80.13,12.19-120.9-6.13-33-25.82-61.95-57.74-74.41-30.7-12-65.92-8.46-96.85.76-39.63,11.81-75.84,33.19-116.26,42.67a174.05,174.05,0,0,1-62.17,2.92c-20.58-2.62-40.71-7.87-60.89-12.54-19.23-4.45-38.48-7.27-58-10.1-17-2.47-34-5.24-51.13-6.21a240.69,240.69,0,0,0-108.74,19.12A226,226,0,0,0,416.81,234c-1.22.85-.06,2.87,1.17,2a227.51,227.51,0,0,1,91.19-37.61,241.9,241.9,0,0,1,58.18-3.31c17.34,1.15,34.47,4.06,51.66,6.49,19.24,2.73,38.16,5.79,57.1,10.22s37.6,9.15,56.78,11.73c19.36,2.6,38.74,2.51,58-1.25,20-3.92,39.18-11.13,58-18.83,34.7-14.21,69-30.54,107-33.16,32.88-2.26,67.38,6,89,32.56,24.6,30.19,26.08,71.73,20.3,108.54-6.41,40.86-20.12,81.11-17.11,123,2.9,40.4,20,78.11,24,118.33a164.67,164.67,0,0,1-23.42,101.42,159.47,159.47,0,0,1-79.42,65.91,164.35,164.35,0,0,1-104.23,4.3c-38.13-11.11-71.74-33.51-107-51.17-33.84-17-70-31-108.26-32.06-41.39-1.14-81.16,12-121.72,18-37.92,5.52-77.55,5-113.17-10.53a162.43,162.43,0,0,1-71.53-61.48c-19.71-30.88-29.41-68-31.46-104.38a217.26,217.26,0,0,1,3.45-54.24,170.24,170.24,0,0,1,6.56-24,214.16,214.16,0,0,0,7.75-29.27c7.76-37.69,23.55-73.28,48.59-102.71A215.35,215.35,0,0,1,418,236.05C419.19,235.19,418,233.17,416.81,234Z"/><path class="cls-16" d="M401.68,227.17A233.27,233.27,0,0,0,327.2,311a256.74,256.74,0,0,0-21.54,57.49c-2.55,10.3-5.13,20.46-9.08,30.34a168.47,168.47,0,0,0-8,26c-8.14,36.56-5.84,75.59,4.26,111.53,9.58,34.09,27.34,65.48,53.87,89.21a170.09,170.09,0,0,0,90.11,41.64c43.07,5.87,85.5-3.39,127.52-11.86,21.9-4.41,44.06-8.36,66.47-8.58a198.38,198.38,0,0,1,61.61,9.68c40,12.61,75.68,34.82,112.5,54.24,34.43,18.15,70.83,32.64,110.39,31.44a173.83,173.83,0,0,0,100.16-35.5c28.15-21.68,48.69-52.54,58.85-86.52a169.64,169.64,0,0,0,7.16-52.88c-.55-20.91-5.15-41.43-10.26-61.63-5.28-20.9-11.22-41.77-13.79-63.23-2.69-22.5-.71-45,3.13-67.24,7.25-41.94,20.48-84,13.77-127-5.33-34.1-24.2-65.16-56.64-79.25-30.64-13.32-66.19-10.95-97.81-2.6C879.26,177,842.44,198.61,802,210.09c-20.57,5.84-41.62,8.5-63,6.93s-42.09-6.54-62.74-11.63c-38.49-9.48-77.68-16.83-117.29-19.61C520,183,480.16,188.94,444,204a240.64,240.64,0,0,0-42.36,23.14c-1.29.88-.08,3,1.23,2.11a241,241,0,0,1,97.9-38.61,256.9,256.9,0,0,1,60.76-2.26c18.43,1.45,36.71,4.41,55,6.88,40.36,5.46,78.94,20.37,119.6,23.94a179.4,179.4,0,0,0,60.17-5.09c20.43-5.2,40-13.19,59.42-21.31,34.54-14.44,69.17-29.35,107.14-30.74,34.32-1.27,69.43,9.3,90.2,38.22,23.68,32.95,23.26,76,16.77,114.3-7.1,41.9-19.87,83.36-15,126.3,4.66,41.42,22,80.53,24.06,122.34,1.78,35.83-8.5,71.88-28.21,101.79a165.75,165.75,0,0,1-85.5,65.61,171.72,171.72,0,0,1-109.48-.07c-38.35-12.76-72.45-35.49-108.32-53.62-35-17.7-72.41-32.13-112.12-32.64-42.65-.54-83.64,12.89-125.5,18.9-39.28,5.64-80,5.31-116.92-10.85a170,170,0,0,1-74.8-64.4c-20-31.46-29.83-69.27-31.59-106.28A213.2,213.2,0,0,1,291,425.46a168.42,168.42,0,0,1,7.52-24.87,230.25,230.25,0,0,0,9.19-30.07c9.36-38.41,26.91-74.43,53.2-104.11a230.37,230.37,0,0,1,42-37.13C404.19,228.39,403,226.28,401.68,227.17Z"/><path class="cls-17" d="M386.56,220.3a248.49,248.49,0,0,0-79.25,86,269,269,0,0,0-23.78,58.23,253.35,253.35,0,0,1-10.68,31.28,167.9,167.9,0,0,0-8.56,25.78c-9.23,37.39-7.29,77.65,2.95,114.63,9.77,35.24,28.16,67.55,55.53,92.07a176.9,176.9,0,0,0,92.38,43.37c44.73,6.42,89.19-3.38,132.84-12.26,22.59-4.6,45.43-8.77,68.54-9.25a200,200,0,0,1,63.78,9.38c41.55,12.93,78.62,36.31,116.68,56.77,35.39,19,72.89,35,113.74,34.84a180.64,180.64,0,0,0,104-33.4c29.77-21.35,52-52.24,63.73-86.85a177.55,177.55,0,0,0,9.53-54.42c.31-20.95-3.58-41.64-8.4-61.93-5.14-21.65-11.38-43.09-14.79-65.12-3.65-23.57-2.64-47.1,1-70.61,6.75-43.83,20.83-87.46,14.88-132.26-4.7-35.37-22.89-68.41-56.07-84.08-31-14.62-67.4-13-99.95-5.14-41.63,10-79.3,31.78-120,44.6-21.19,6.67-43.06,10.69-65.34,9.92-21.92-.75-43.46-5.43-64.67-10.72C654,196,633.45,190.17,612.49,186.45c-19.82-3.5-40-6.14-60.12-7.68-40.82-3.14-82.3,2.24-120.4,17.53a252.36,252.36,0,0,0-45.41,24c-1.36.91-.09,3.11,1.28,2.2a253.75,253.75,0,0,1,104-39.45,275.94,275.94,0,0,1,63.25-1.51,597.57,597.57,0,0,1,60.35,8c40.63,7.66,80,22.77,121.63,24.69,43.34,2,83.37-14.41,122.57-30.86C895,168.58,930.81,154.3,969.74,154c35.26-.27,70.45,12.15,90.57,42.58,23.11,35,21.59,79.28,14.73,118.89-7.48,43.25-19.39,85.85-13.35,130.1,5.83,42.71,23.41,83.51,23.76,127,.3,37-11.74,73.85-33.23,103.94a172.28,172.28,0,0,1-89.73,64.13c-37.09,11.39-76.07,9.9-112.57-2.9-39.85-14-75.32-37.87-112.73-57-36-18.38-74.33-33-115.24-33.26-44.42-.24-87.19,13.75-130.82,20-40.35,5.82-81.91,5.54-119.82-11a177.44,177.44,0,0,1-78.22-67.22c-20.65-32.51-30.72-71.74-32-110a210.52,210.52,0,0,1,5.62-57,167,167,0,0,1,8.81-26.32,235.4,235.4,0,0,0,10.24-30c11.08-39.55,30.64-76.33,58.67-106.49a243.83,243.83,0,0,1,43.38-36.89C389.2,221.6,387.93,219.39,386.56,220.3Z"/><path class="cls-18" d="M371.45,213.44a265.45,265.45,0,0,0-83.27,86.65,280.78,280.78,0,0,0-26.39,59,281.81,281.81,0,0,1-12.34,32.78A167.83,167.83,0,0,0,240.34,417c-10.45,37.69-9.22,78.57.54,116.28,9.53,36.78,28.23,70.52,56.31,96.34a184.54,184.54,0,0,0,94.24,46.28c45.71,7.54,91.82-2.41,136.48-11.71,23.83-5,47.86-9.67,72.23-10.64a202.58,202.58,0,0,1,66.25,8.41c42.59,12.69,80.58,36.62,119.19,58,37,20.43,76.13,38.7,119.08,40a187.38,187.38,0,0,0,108.74-31c31.43-20.91,55.35-51.81,68.81-87a184.78,184.78,0,0,0,11.94-55.21c1.26-21.47-1.88-42.79-6.47-63.71-4.89-22.25-11.28-44.16-15.32-66.59a233.33,233.33,0,0,1-1.68-70.63c5.76-46.43,21.27-92.14,16.39-139.41-3.77-36.45-20.58-71.6-53.92-89.44-30.86-16.51-68.14-16.08-101.58-9-42.62,9-81.16,30.58-122.06,44.79-21.43,7.44-43.67,12.95-66.44,13.55s-45.26-3.4-67.29-8.68c-21.46-5.15-42.62-11.48-64.16-16.29a486,486,0,0,0-64.55-9.53c-43-3.65-86.44,1.21-126.82,16.75a266.52,266.52,0,0,0-48.8,24.93c-1.44.92-.1,3.23,1.34,2.3A267,267,0,0,1,486.38,175a304.8,304.8,0,0,1,63.63-.34,484.57,484.57,0,0,1,65.41,10.21c41.12,9.56,81.86,24.45,124.6,24.09,44.69-.38,85.91-19.33,126.39-36.18,35.52-14.78,72-27.74,111.05-26.73,36.38,1,71.39,15.7,90.58,47.91,22.46,37.71,19.07,84,11.65,125.4-4,22.13-8.9,44.1-11.67,66.43a232.28,232.28,0,0,0,.85,65.93c7,43.55,24.27,85.67,22.83,130.36a184.48,184.48,0,0,1-39,106.88c-23.67,30.21-57,51.71-93.9,61.82-39.78,10.89-80.69,7.29-118.94-7.55-40.46-15.7-76.69-40.32-115.21-60-37.42-19.11-77.11-33.36-119.65-32.56-46.23.86-90.73,15.51-136.26,21.83-41.16,5.71-83,4.6-121.36-12.84a185.15,185.15,0,0,1-80.16-70.44c-20.95-33.74-30.94-74.41-31.41-113.92a206.7,206.7,0,0,1,7.12-57.67,171.4,171.4,0,0,1,9.94-26.8,238.06,238.06,0,0,0,11.06-29.63c12.64-40.23,33.91-77.44,63.23-107.85a260,260,0,0,1,45.65-37.65C374.22,214.81,372.89,212.5,371.45,213.44Z"/><path class="cls-19" d="M356.34,206.57a283.27,283.27,0,0,0-88.2,88.82,293.59,293.59,0,0,0-28.26,59,292,292,0,0,1-13.52,33,168,168,0,0,0-10.25,26.23c-11.37,38-10.7,79.47-1.24,117.8,9.42,38.17,28.49,73.2,57.35,100.12,26.65,24.85,60.29,42.23,96.19,48.77,46.3,8.44,93.39-1.5,138.68-11.13,24.56-5.23,49.26-10.4,74.36-12.07A208.23,208.23,0,0,1,652,664.2c43.77,12.32,82.73,36.85,122,59.06,38.11,21.57,78.35,41.9,122.76,45.18a193.76,193.76,0,0,0,114.23-27.78c33.48-20.47,59.52-51.51,74.77-87.61A193.41,193.41,0,0,0,1100,597.71c2.22-21.46.14-42.91-3.94-64-4.46-23.13-11-45.78-15.69-68.86-4.86-24.07-6.67-48.08-4.35-72.57,4.56-48.23,20.81-95.31,17.51-144.19-2.54-37.42-17.33-74.78-50.23-95.37-30.7-19.2-69.29-20.29-104-14.09-43.55,7.78-82.94,28.94-124,44.33-22.2,8.32-45.18,15.15-68.9,17.17-23,2-46-1-68.51-5.92s-44.66-11.71-67-17.42a451.46,451.46,0,0,0-67.38-11.94c-45.24-4.46-91-.09-133.82,15.54a282.32,282.32,0,0,0-53.27,26.2c-1.51,1-.11,3.35,1.4,2.4a281.9,281.9,0,0,1,121-41.62c45.33-4.67,91.33,1.66,135.21,13.09,42.24,11,84.9,25.62,129.16,22.69,46-3,88-23.73,130-40.86,36-14.69,73.65-26.44,113-23.89,17.89,1.15,35.77,5.44,51.49,14.22a97.15,97.15,0,0,1,38.73,40.34c20.81,40.13,15.8,87.33,8.05,130.14-4.16,23-9,45.89-11.21,69.18a242.45,242.45,0,0,0,3.37,67.75c8.22,43.9,24.39,86.88,21.1,132.2a191,191,0,0,1-44.29,108.47c-25.78,30.49-61.36,51.51-100.17,60.54a188.71,188.71,0,0,1-59.27,4.21c-22-1.94-43.35-8.23-63.65-16.72-41.44-17.31-78.71-43-118.64-63.29-18.91-9.61-38.48-18.14-58.93-23.9A207.93,207.93,0,0,0,587.33,654c-47.51,2-93.21,17.11-140.12,23.55-23.69,3.25-47.93,4.57-71.67,1.12a184.8,184.8,0,0,1-52.62-16,192.55,192.55,0,0,1-81.43-73.15c-21-34.49-30.94-76-31-116.19a206.28,206.28,0,0,1,8.25-59A171.1,171.1,0,0,1,229.65,387a255.23,255.23,0,0,0,12.4-30.38,288.38,288.38,0,0,1,67.72-109.2,276.12,276.12,0,0,1,48-38.44C359.25,208,357.86,205.61,356.34,206.57Z"/><path class="cls-20" d="M341.24,199.71a301.13,301.13,0,0,0-92.37,89.69A306.45,306.45,0,0,0,218,349.7a334.25,334.25,0,0,1-15.29,34.4,169.94,169.94,0,0,0-11,26.82c-12.24,38.76-11.9,81.29-2.35,120.59,9.5,39.1,29,74.89,58.44,102.53,27.89,26.18,63.24,44.56,100.94,51.39,47.5,8.61,95.64-2.08,142-12.14,25.25-5.48,50.66-10.89,76.48-12.79,24.62-1.81,49.07.11,72.89,6.69,45.27,12.5,85.37,38.12,125.7,61.32,39.26,22.59,80.73,44.17,126.54,48.5a200.17,200.17,0,0,0,117-25.46,194.26,194.26,0,0,0,79.86-88,200.38,200.38,0,0,0,16.41-56.66c2.91-21.76,1.65-43.56-2.05-65.16-4.06-23.69-10.6-46.85-15.62-70.33-5.2-24.36-8.08-48.8-6.42-73.72,3.36-50.15,20.37-98.84,18.05-149.44-1.8-39.43-15.9-79.5-50.21-101.95-30.7-20.09-69.65-22-104.92-16.37-44.88,7.13-85.45,28.33-127.42,44.58-22.6,8.76-45.92,16.3-70.06,19.28-23.59,2.91-47.28.83-70.51-3.83C630.7,180.74,587,163.67,540.37,158c-47.67-5.77-96.28-1.47-141.7,14.38a298,298,0,0,0-57.43,27.29c-1.58,1-.13,3.46,1.46,2.49a298.4,298.4,0,0,1,128.82-42.56,330.19,330.19,0,0,1,72.27,1.72c23.4,3,46.2,8.76,68.9,15.08,42.94,12,86.74,25.46,131.85,20.49,46.9-5.16,89.58-26.84,132.82-44.14,36.59-14.64,75.36-25.63,115.18-22.09,18.27,1.62,36.43,6.54,52.23,16.05a100.44,100.44,0,0,1,38.51,43c20.41,42.61,14,91.64,6,136.42-4.25,23.72-9,47.44-10.58,71.52-1.57,23.46.81,46.58,5.49,69.57,9.12,44.84,24.32,89,19.12,135.4a197.46,197.46,0,0,1-49,109.06c-27.5,30.58-64.92,51.18-105.13,59.35a193,193,0,0,1-61.17,2.62c-23.23-2.77-45.7-10.07-67-19.53-41.71-18.53-79.42-44.68-120-65.4-19.29-9.85-39.27-18.55-60.18-24.32a212.76,212.76,0,0,0-68.41-7.14c-49.16,2.66-96.37,18.39-144.93,25.21-24,3.38-48.65,4.69-72.73,1a192.31,192.31,0,0,1-54.21-16.76,200,200,0,0,1-84.22-75.92c-21.52-35.48-31.54-78.24-31.07-119.54a205.21,205.21,0,0,1,9.38-60.3,173,173,0,0,1,11.77-27.9A276.38,276.38,0,0,0,220.18,352a304.23,304.23,0,0,1,72.16-110.52A294.37,294.37,0,0,1,342.7,202.2C344.28,201.22,342.83,198.73,341.24,199.71Z"/><path class="cls-21" d="M195.43,346.55c-9.09,22.46-22.51,42.77-29.57,66.06a214.76,214.76,0,0,0-8.79,64.78c.51,43.12,12.19,87.41,36.17,123.52a211.23,211.23,0,0,0,92.28,76.56,200.73,200.73,0,0,0,59,15.33c23.77,2.37,47.73.36,71.23-3.41,49.44-7.94,97.68-24.1,148-26.23a213.63,213.63,0,0,1,68,7.86c20.33,5.82,39.74,14.37,58.49,24.06,74.47,38.49,144.72,97.12,233.5,91.25,44.13-2.91,87.3-20.12,120.73-49.19s56.44-69.53,65.34-112.78a207.27,207.27,0,0,0,2.27-68.13c-3.18-25.08-9.7-49.53-15.27-74.14-6-26.31-10.36-52.78-9.21-79.85s6.5-53.93,11.11-80.68c7.58-43.92,13-91-4.52-133.36-7.54-18.23-19.43-34.34-35.35-46.1-15.55-11.5-34.16-18.22-53.18-21.13-41.77-6.38-83.94,3.71-122.76,18.73-46.11,17.85-91.08,41.77-140.7,48.26-51.47,6.73-101-10.23-149.86-23.89-23.5-6.56-47.24-12.25-71.57-14.67a317.08,317.08,0,0,0-295.77,141,320.78,320.78,0,0,0-29.45,56.18c-.72,1.79,2.18,2.56,2.89.79C232.25,263.55,302,196.65,387.8,167.65A317.81,317.81,0,0,1,527,153.09c49.59,6,96,25.73,144.94,34.9,23.37,4.38,47.14,6,70.77,2.89s46.69-10.36,69-18.89c42.49-16.25,83.43-37.83,128.52-46.15,38.84-7.17,82.78-5.8,116,18.08,36.24,26.07,47.27,72,46.62,114.44-.77,50.31-17.4,98.88-18.46,149.2-1.07,50.93,18.31,98.7,24.65,148.67,5.78,45.5-3.33,91.42-26.87,130.9a197.27,197.27,0,0,1-102,84.27,203.7,203.7,0,0,1-129.18,3.2c-39.83-12.13-75.72-34-111.31-55.06C704.33,698.71,668.3,677.65,628.44,667c-44.64-11.9-90-6.28-134.51,3.1-47.17,9.93-94.77,23.52-143.46,20.17-41.63-2.86-81.84-19.72-114-46.13-32.79-26.93-55.69-63-67.22-103.7-12-42.41-13-89.13.84-131.23,7.13-21.64,19.71-40.81,28.24-61.9C199.05,345.56,196.15,344.78,195.43,346.55Z"/><path class="cls-22" d="M318.41,194.45a293.46,293.46,0,0,0-99.48,87.25,288.69,288.69,0,0,0-34.07,62.61c-4.61,11.7-8.24,23.76-13,35.39-4.66,11.34-10.25,22.15-14.25,33.77-15.39,44.84-14,94.67.58,139.55A201.81,201.81,0,0,0,226.7,651a212.69,212.69,0,0,0,110.67,43.68c53.33,4.89,105.64-7.92,158-15.75,26.84-4,54.09-6.6,81.23-4.59A231.78,231.78,0,0,1,646.26,691c42.73,17.24,80.81,43.79,120.62,66.57,40.2,23,83.5,42.58,130.48,44.6a214.16,214.16,0,0,0,122.18-32.58c36.2-22.77,64.58-56.74,82-95.71A226.81,226.81,0,0,0,1119,613.12c3.39-24.13,2.19-48.44-.72-72.55-3.12-25.84-8-51.41-11.36-77.22a457.25,457.25,0,0,1-3.24-79.07c2.13-47.85,10.72-95.93,6.54-143.9-3.46-39.64-17.06-79.07-50.28-103.36-31.46-23-72.58-27.9-110.43-24.2-46.78,4.56-90.48,23.28-134.4,38.74-23.67,8.33-47.72,16-72.48,20.39-25.42,4.48-51.24,4.5-76.87,2-49.37-4.88-97.58-17-147.28-19.17-46.34-2-93.33,1.95-138,14.76a320,320,0,0,0-62.08,24.95c-1.59.84-.18,3.25,1.41,2.41C403.92,152.15,502.19,151,594.08,166c47,7.71,94.31,16.77,142,9.8C785,168.69,830.48,148,877,132.51c39.93-13.3,82.08-22.5,124.25-15.78,39.83,6.34,74.81,28.35,92,65.67,18.08,39.15,16.48,84.29,13.3,126.26-1.92,25.2-4.55,50.36-5.67,75.62a453.78,453.78,0,0,0,3,77.21c6.18,49.06,19,98.51,12.77,148.22a224.24,224.24,0,0,1-51,116.09A209.52,209.52,0,0,1,957.1,793.22c-44.44,11.18-89.77,6.57-132.21-10.08C741.89,750.57,674.13,681,582.27,672c-51.34-5.06-101.89,7.23-152.29,14.93-47.64,7.28-97,10.29-143.09-6.14-37.78-13.45-71.87-37.85-96-69.94-26.89-35.73-40.34-81-41.34-125.41a204.89,204.89,0,0,1,10.77-71.22c3.79-11,9-21.35,13.55-32.09,4.88-11.63,8.54-23.7,13.09-35.45A288.71,288.71,0,0,1,319.82,196.86C321.41,196,320,193.6,318.41,194.45Z"/><path class="cls-23" d="M310,197A278.7,278.7,0,0,0,207.29,281.4a268.07,268.07,0,0,0-34.35,62c-4.47,11.36-7.92,23-11.31,34.72-3.51,12.15-8.11,23.72-12.44,35.58a219,219,0,0,0-3.13,141.44,198.14,198.14,0,0,0,69.75,99.44c33.47,25.37,73.36,39.6,115,43.36,54.47,4.93,108-5.92,161.93-11.09,26.2-2.52,52.68-3.52,78.88-.5A244.48,244.48,0,0,1,642.41,706c42.59,18.76,80.53,46.19,120.71,69.34,40.72,23.46,84.88,42.35,132.53,43.61C939.3,820.05,983.22,807.48,1020,784c37-23.67,66.17-58.54,84.86-98.13a253.14,253.14,0,0,0,19.84-60.78c4.56-24.05,5.06-48.57,4.07-73-1.07-26.43-3.94-52.75-6.46-79.07-2.55-26.71-4.47-53.44-5.36-80.25-.84-25.51-.91-51-.73-76.56.17-23.13.65-46.29-1.27-69.37-3.45-41.34-15.36-83.06-48.48-110.44-30.06-24.85-70.12-33.57-108.37-33-48.25.73-94.59,16.71-140,31.6-24.9,8.17-49.87,16.42-75.45,22.23s-51.78,8.39-78,8.75c-49.58.66-99.1-4.39-148.7-4.54-47.48-.15-95.44,2.32-141.79,13.32A328,328,0,0,0,310,197c-1.51.71-.19,2.94,1.31,2.24,43-20.27,90.21-29.34,137.36-33,47.64-3.66,95.63-2.41,143.29,0,48.47,2.49,97,4.81,144.91-5.12,49.61-10.3,96.61-30.19,145.46-43.27,41.81-11.2,86-16.92,128.51-6,40.13,10.26,73.41,36.27,88.79,75.3,16.31,41.38,14.23,87.33,13.94,131-.35,51.13,1.08,102.07,5.92,153,4.73,49.78,12,101.22,3.08,151a248.4,248.4,0,0,1-55,116.8,221.36,221.36,0,0,1-110.3,70c-45.23,12.22-91.89,8.65-135.56-7.83C736.6,768.86,669.55,696.87,576.68,684.33c-99.59-13.44-200.74,33.36-298.84.14-38.66-13.09-73.92-37.35-98.72-69.92-27.57-36.2-41.06-82.79-40.92-128,.07-24.82,5-48.91,13.49-72.18,4.12-11.28,8.56-22.27,11.93-33.83,3.42-11.73,6.77-23.43,11.18-34.83a270.19,270.19,0,0,1,81.36-111.55,275.11,275.11,0,0,1,55.16-34.92C312.82,198.49,311.51,196.25,310,197Z"/><path class="cls-24" d="M300.28,200.42a268.06,268.06,0,0,0-106.15,82,253.93,253.93,0,0,0-34.62,60.51A269.8,269.8,0,0,0,148,378.55c-3.14,12.61-5.53,25.38-9.66,37.72-7.88,23.58-14.27,47.32-15,72.31a217.89,217.89,0,0,0,10.2,72.28A194.94,194.94,0,0,0,206.19,661c36.28,26,78.69,38.59,122.87,42.08,54.35,4.29,108-4.68,162.1-7.09,26.84-1.2,53.91-.62,80.42,4.11,24.07,4.29,47,12.38,69,23.13,42.14,20.64,79.78,49.07,120.41,72.35,41.79,23.95,87.6,41.54,136.41,40.9,45-.59,89.74-15.22,126.78-40.69,36.61-25.17,65.43-61,84.67-100.84,21-43.46,28.39-90.13,29.52-138,1.27-53.65-4.51-107-10.36-160.29-2.8-25.52-5.43-51.07-6.73-76.72-1.2-23.65-1.31-47.34-3.46-70.94-3.87-42.48-15.18-84.86-48-114.35-29.51-26.54-69.38-38.27-108.4-40.2-49.56-2.45-98.38,11.33-145.22,26-25.6,8-51,16.81-76.83,24.06a546,546,0,0,1-73.82,15.27c-50,6.83-100.81,8.29-151.17,9.61-48.9,1.29-98.17,2.06-146.39,11.13a331.75,331.75,0,0,0-67.43,19.81c-1.4.59-.79,2.9.63,2.3,44.74-18.8,93.19-25.42,141.3-28.28,48.33-2.87,96.8-3,145.15-5.48s96.23-7.24,143.06-19.53c50.07-13.13,98.28-32.57,148.84-44,43.62-9.85,89.37-13.23,132.65.14,40.1,12.39,73.7,39.69,89.43,79.18,16.78,42.14,15,88.84,17.14,133.33,2.49,51.45,10.33,102.44,14.35,153.76,4,51.54,6.24,105.23-4.14,156.2a277.44,277.44,0,0,1-56.5,119.81c-28.9,35.32-67.06,62-110.66,75.81a221.87,221.87,0,0,1-138.5-1.63C735.15,792.22,668.93,716.5,575.94,698.5c-50.63-9.8-101.81-3.76-152.65.52-50.5,4.26-103.54,6.3-152.57-8.73C231,678.1,194.3,654.5,168.21,622c-29.34-36.58-43.63-85-42.59-131.6.56-25.09,6.82-48.92,14.72-72.6,4.21-12.63,6.72-25.66,9.94-38.57a269.77,269.77,0,0,1,10.87-33.95c17.46-44.13,47.39-82.54,85.32-111a265.94,265.94,0,0,1,55-31.76C302.89,201.88,301.68,199.82,300.28,200.42Z"/><path class="cls-25" d="M289.21,204.59A261.84,261.84,0,0,0,181.38,282a244.15,244.15,0,0,0-37,61.12,260.08,260.08,0,0,0-11.76,34.71c-3.38,12.88-5.29,26-7.83,39.07-4.95,25.52-14,49.73-15.41,75.95a208.49,208.49,0,0,0,9.57,73.7c13.27,42,40,77.3,76.39,102,38.94,26.46,84.29,37.63,130.77,41.15,54.66,4.13,108.94-3.38,163.56-3.06,27.27.17,54.66,2.37,81.22,8.78,24.05,5.81,46.78,15.44,68.44,27.3,41.79,22.87,79.38,52.55,121,75.75,42.75,23.85,90,39,139.41,36,46.19-2.79,91.51-19.76,128.54-47.44,36.77-27.48,65.61-65,85.34-106.29,21.36-44.67,30.69-93.39,34.38-142.51a516,516,0,0,0-.24-81.71c-2.22-26.36-7-52.37-12-78.32-4.94-25.72-9.81-51.47-12-77.59-2.08-24.16-2.63-48.42-5-72.55-2.29-23.06-6.13-46.31-15-67.84a141.89,141.89,0,0,0-34.34-49.66c-29.68-27.69-69.72-41.79-109.64-45.55-50.72-4.78-101.68,7.3-149.79,22.31C760,122.94,711.57,142.7,660.81,155.71a756,756,0,0,1-150,22.53c-50.35,2.52-101,1.6-151,8.83-24.07,3.48-47.83,9-70.63,17.52-1.3.49-.74,2.6.58,2.1,47.12-17.67,97.67-21.8,147.56-23.7,48.62-1.85,97-2.61,145.27-9.54S678,154.59,724.09,139.1c49.42-16.59,97.93-35.84,149.25-46,45.24-9,92.48-10.47,136.54,4.91,40,14,74.29,42,91.13,81.46,18.62,43.67,16.6,92.89,20.4,139.31,4.17,50.79,18.49,100,23.51,150.68A516.45,516.45,0,0,1,1135.65,630c-9.84,44.79-29.23,87.67-57.21,124.07-28.73,37.38-66.59,67-110.87,83.61-45.29,17-94.58,19.62-141.2,6.52-91.76-25.8-157-105-249.27-129.5-50-13.26-102-10.87-153.13-7.81-53.11,3.18-108,4.54-159.87-9.36-40.9-11-79.23-33.58-107-65.8-31.51-36.63-47.23-86.34-45.75-134.39a202.77,202.77,0,0,1,5.42-39.53c2.84-12.31,6.76-24.36,9.36-36.71s4.26-25.07,7.23-37.44a261.37,261.37,0,0,1,11-34.94c17.67-44.74,48.75-83.34,87.87-111.2a258.33,258.33,0,0,1,57.49-30.87C291.09,206.2,290.52,204.09,289.21,204.59Z"/><path class="cls-26" d="M277.23,209.56A257.68,257.68,0,0,0,164.8,286.3c-32.66,38.52-50.42,85.23-56.67,135C104.77,448,96.47,474,94.78,500.94a199.25,199.25,0,0,0,10.32,75.82c14.52,43,43.62,78.11,82,102,41.73,26,90.47,35.64,138.92,39,55.25,3.87,110.52-2.34,165.75,1.06,27.94,1.73,55.86,5.9,82.55,14.54,23.56,7.64,45.61,19,66.67,32,42.06,25.81,80.48,57.45,124.55,80,44.48,22.74,93.9,33.41,143.67,26.47,47.27-6.58,92.17-27.24,128.47-58.11,76-64.68,112.34-164,121.69-261.15,2.66-27.67,2.4-55.62-1.82-83.12-3.93-25.61-11.17-50.5-18-75.45-6.91-25.36-12.64-50.77-15.15-77-2.44-25.42-3.17-51-6.1-76.37-2.65-23-7.07-46-16.65-67.25a155.31,155.31,0,0,0-36.94-50.66c-30.22-27.52-69.91-42.95-110.16-47.84C848.31,62,751.52,117.29,655.72,153.65,607.43,172,557.56,184.5,505.92,188c-52.28,3.52-104.87.81-157,6.54-24.33,2.67-48.44,7.26-71.67,15.05-1.2.4-.69,2.31.52,1.9,49.14-16.46,101.33-18.2,152.68-19.13,49.8-.9,99.29-1.81,148.09-12.86C677.61,157,764.77,99.69,865,81c46.94-8.74,95.88-8.76,141,8.38,39.22,14.9,73.32,42.52,92,80.55,22,44.8,19.9,96.76,24.4,145.25,2.28,24.49,7.12,48.36,13.45,72.1,6.48,24.25,13.76,48.31,18.3,73,10.07,54.78,3.7,110.38-9.06,164.14-11.08,46.69-29.43,91.35-57,130.76s-64,72.64-107.67,93.24c-44.78,21.12-95.61,29-144.41,19.59-49.75-9.55-92.79-36.07-134-64.31C663.35,777.32,625,749,580.46,733.39,530.8,716,477.33,714.82,425.28,716.28c-54.72,1.54-109.87,2.67-163.6-9.62-44-10-85.52-31.27-116.29-64.79-33.26-36.2-50.49-86.38-48.9-135.34.86-26.33,9.15-51.34,12.61-77.29,3.46-26.1,7.93-51.25,17.67-75.84,18.06-45.58,50.49-84.54,91-112a254,254,0,0,1,60-30C279,211.05,278.44,209.14,277.23,209.56Z"/><path class="cls-27" d="M265.09,215.05A255.22,255.22,0,0,0,149.14,290c-33.57,38.1-53.81,86.41-58.8,136.88-1.47,15-2.56,29.87-5.06,44.74-2.22,13.17-4.6,26.35-5.43,39.7a191,191,0,0,0,11.3,76.26c15.81,43.77,47.41,78.68,87.57,101.69,44.65,25.57,96.92,34.35,147.64,37.78,55.85,3.77,112-.89,167.7,5.62,27.88,3.25,55.59,9.23,81.71,19.68,23.38,9.36,45.1,22.35,65.93,36.39,41.22,27.77,79.76,60.18,125,81.49,46.4,21.86,98,28.85,148.37,18.82,48.51-9.65,93.19-33.5,129.43-67,36.06-33.3,64-74.86,84.37-119.38,10.77-23.56,19.19-48,26.45-72.9,7.73-26.47,14.06-53.48,16.55-81a248.33,248.33,0,0,0-5.57-80.61c-6.12-25.46-15.93-49.77-24.37-74.49a342,342,0,0,1-17.16-77.39c-2.61-26.43-3.26-53-6.37-79.4-2.82-23.93-7.82-47.68-18.25-69.54A170.18,170.18,0,0,0,1063.25,117c-31.47-29.7-73-47.4-115.6-53.15-51.4-6.92-104.4,2.88-152.95,19.87-49.78,17.43-95,44.73-141.8,68.53-47.64,24.22-97.1,41.56-150.64,46-54.06,4.46-108.41-.05-162.5,3.91-25.26,1.84-50.37,5.63-74.67,12.9a.89.89,0,0,0,.47,1.71C317,201.36,371.14,202,424.32,202.13c51.19.11,102.23-.91,151.6-15.91,47.17-14.32,89.89-38.88,133.27-61.72,47.31-24.91,96-46.33,149-55.82,48.16-8.64,98.44-7.24,144.14,11.51,40,16.43,74.85,45.59,94.56,84.49,23.42,46.2,21.17,99.48,26,149.72a333.59,333.59,0,0,0,15,72.7c7.82,23.89,17.37,47.21,24.1,71.45a247.66,247.66,0,0,1,8.76,82.11c-1.71,27.49-7.52,54.55-14.93,81-13.69,48.93-32.52,96.14-61,138.47-27.56,41-63.47,77.07-107.15,100.7-44.08,23.86-95.3,35.45-145.3,29.59-52.17-6.11-97.58-31.33-140-60.91-39.18-27.35-76.91-58-121.23-76.86C532.54,732,479,727.68,426.76,727.12c-55.95-.59-111.84.84-167-10.52-46.67-9.62-91-28.82-125-63-35.69-35.9-55.13-86.93-53.36-137.49.5-14.14,2.91-28.1,5.27-42,2.18-12.89,3.63-25.71,4.71-38.73,2.21-26.77,7.79-52.93,17.92-77.87,18.75-46.14,52.67-85.2,94.48-112a251.47,251.47,0,0,1,61.79-28.67A.89.89,0,0,0,265.09,215.05Z"/><path class="cls-28" d="M252.92,220.93a254,254,0,0,0-120.51,74.41C97.88,333.6,76.87,382.63,72,433.91c-1.39,14.65-1.23,29.39-2.59,44s-3.72,29.14-4.59,43.8a183.86,183.86,0,0,0,13,78.53c17.92,45.11,53.38,79.94,96.3,101.74,48.29,24.53,104.12,32.17,157.56,35.49,57.95,3.59,116.28.72,173.57,11.92,27.38,5.36,54.09,13.85,78.93,26.65,22.63,11.66,43.58,26.27,64,41.37,40.79,30.14,80.71,63.17,128.7,81.3,49.84,18.84,104.35,19.44,155.16,4,49.28-15,92.57-43.92,127.78-81.24,34.47-36.54,61.18-79.93,81.59-125.68a680.42,680.42,0,0,0,29.94-80c8.17-27,13.88-55.09,13.56-83.45-.3-26.25-6.52-51.48-16-75.86-9.3-24-21-47-29.67-71.28-18.7-52.23-14-107.53-21.87-161.61-6.79-46.75-27.51-88.85-63.22-120.23C1020.51,73.81,977.48,56.09,933,51.3c-51.95-5.6-105.34,4.75-153.37,24.61C731.16,96,689.17,127.46,645,155.2c-21.75,13.67-44.28,26.21-68.25,35.56a291.64,291.64,0,0,1-79.52,18.31c-55.46,5.11-111.18-1.15-166.74,1.06-26.16,1-52.25,4-77.58,10.8a.78.78,0,0,0,.42,1.51C357.47,194.62,468.46,232,571,194.6c46.07-16.78,85.86-45.47,126.66-71.93,44.45-28.82,91-53,143.14-64.21C890.39,47.82,943,48.3,990.68,66.86c41.52,16.15,78.14,45.28,100.78,83.9,27.13,46.25,27,99.61,30.7,151.51,1.84,25.9,5,51.63,13.2,76.38,7.79,23.63,18.84,46,28.32,68.91,10.13,24.51,18,49.84,19.4,76.48,1.52,28.59-3.41,57.06-11.21,84.48-14.54,51.15-35.62,101.68-63.66,146.93-26.75,43.2-61.12,82.85-103.61,111.2-43,28.71-94.63,45.9-146.56,45.65a231.82,231.82,0,0,1-80.73-15.07C753,888.05,730.44,874.79,709,860.16c-40.69-27.8-77.87-61.09-121.66-84.19-100-52.75-215.95-28.83-323.3-47.64-50.49-8.84-99.71-26.2-138.11-61.27-38.86-35.5-61.44-87.38-59.77-140.17.45-14.37,2.66-28.6,4.21-42.87,1.51-13.84,1.7-27.72,2.55-41.6A248.66,248.66,0,0,1,92.56,360c19.71-45.83,54.8-84.23,97.27-110.09a249.73,249.73,0,0,1,63.51-27.42A.78.78,0,0,0,252.92,220.93Z"/><path class="cls-29" d="M240.75,227.07A253.93,253.93,0,0,0,116,300.65c-36.14,39-57.45,88.82-62.56,141.61-1.5,15.44-1,31-1.25,46.44-.25,15.25-1.89,30.41-2.52,45.64A178.8,178.8,0,0,0,64.73,613.4C85,659.61,124.45,694.37,170,714.85c52.21,23.49,110.87,30.39,167.45,33.85,58.65,3.59,117.8,3.42,175,18.76a291.44,291.44,0,0,1,76.87,32.77c22.65,13.85,43.6,30.24,64.44,46.61C694.9,879.19,737,912,788.38,926.08c52.55,14.43,108.56,8.91,158.88-11.15,49.33-19.66,91.54-53.1,125.94-93.22,34.88-40.68,61.7-87.51,83.86-136.13,23.25-51,46.94-106.92,37.89-164.2-8.25-52.23-43.42-94.06-59.19-143.64-17.65-55.49-8.68-114.92-20-171.48a205,205,0,0,0-69.65-116.49c-36.5-30.57-82.19-48.11-129.57-51.46-52.44-3.71-106.07,8.26-152.81,32-47,23.91-85.7,59.94-127.82,91-20.37,15-41.79,28.77-65,39-26,11.44-53.62,17.68-81.85,20.18-56.22,5-112.56-2.78-168.83-2.18-26.7.28-53.4,2.52-79.42,8.72-.86.2-.5,1.52.36,1.31,106.26-25.3,220,18,323.39-23.88,45-18.22,82.18-49.59,119.92-79.3C705,109,726,93.31,748.68,80.11A303.59,303.59,0,0,1,823.53,49c51-13.59,106.6-14.27,156.54,4.16,43.29,16,81.52,45.61,106.55,84.51a199.18,199.18,0,0,1,27,65c6.17,28.13,7,57.09,8.33,85.76,1.31,27.48,3,55.29,10.26,81.95,6.61,24.19,18.21,46.51,29.71,68.66,11.88,22.92,23.71,46.17,29.58,71.47,6.75,29.16,4.45,59.27-2.87,88.07-7.15,28.14-18.6,55-30.48,81.4a710.48,710.48,0,0,1-36.41,71c-26.83,45.3-60.09,87.4-101.62,120.11-42.89,33.78-95.12,56.24-149.74,60.92a232.88,232.88,0,0,1-82.58-7.58c-26.18-7.32-50.49-19.55-73.22-34.32-42.68-27.73-79.69-63.33-123-90.15-45.87-28.4-97.87-41.09-151.11-46.54-57.55-5.89-115.56-4.41-172.86-13.18-53.48-8.18-107.12-24.11-149.42-59.16C76.34,646.5,49.89,594.49,50.86,539.7c.26-14.53,1.92-29,2.49-43.52.61-15.36-.07-30.76.85-46.11a248,248,0,0,1,19.06-81.34c20-47.36,56.49-86.84,100.59-112.9a249.7,249.7,0,0,1,67.26-27.45A.68.68,0,0,0,240.75,227.07Z"/><path class="cls-30" d="M229,233.38a254.2,254.2,0,0,0-129.14,73c-37.6,39.52-59.5,90.36-64.7,144.52C33.57,466.91,34,483,34.64,499s.4,32,.16,48a175.77,175.77,0,0,0,19.1,83c23.45,46,66.36,79.37,113.77,98.17,56.05,22.23,116.73,28.45,176.41,32.42,59.31,3.94,119.51,7,176.16,26.68a299.81,299.81,0,0,1,74,38.44c22.51,15.81,43.42,33.71,64.75,51,42.26,34.36,87,65.39,141.84,74.83,54.33,9.36,110.61-1.54,159.91-25.36,49.94-24.12,91.83-62.11,126.25-105.16,35.48-44.38,63.39-94.25,88.39-145.11s45.1-107.25,26-163.42c-16.95-49.77-55.15-89.24-68.13-140.75-14.68-58.26-3.65-119.59-18.07-177.9-11.41-46.13-38.66-87.63-75.43-117.56-39.11-31.82-87.71-49.18-138-50.92a270.18,270.18,0,0,0-152.5,41.23c-44.05,27.83-79.05,66.72-118.51,100.22-20.14,17.1-41.72,32.69-65.66,44-25.92,12.29-53.91,18.74-82.41,21.16-57.69,4.9-115.33-4.65-173-5.5-27.07-.4-54.19,1.15-80.72,6.8-.73.16-.42,1.28.31,1.12,56.24-12,113.94-5.24,170.7-1.71,52.84,3.29,107.58,4,157.23-17.07,46.14-19.58,82.42-54.61,118.62-88.22C715.29,90.86,756.72,57,808.68,40c51.29-16.8,108.5-18.8,160-1.55a226.46,226.46,0,0,1,114.85,87.44,215.56,215.56,0,0,1,29.68,65c7.48,28.15,8.69,57.43,9.62,86.39.93,28.64,1.43,57.54,7.22,85.71,5.34,25.91,16.35,49.35,29.54,72.12,12.84,22.16,27.07,43.72,36.82,67.51a154.58,154.58,0,0,1,9.64,83.6c-4.69,29.59-16.36,57.65-29.32,84.47-12.66,26.18-26.21,52-41,77.07-55.65,94.18-136.11,180.48-248,201.6-58,10.95-116.65.87-167.32-29.45-44.16-26.42-80.77-63.17-122.48-93-21.36-15.27-44.09-28.2-68.65-37.56-26.65-10.17-54.61-16.49-82.77-20.69-56.8-8.49-114.45-8.17-171.38-15.56-56.77-7.38-115.21-21.64-161.93-56.27C67.79,663.19,36.31,611.15,35.9,553.74c-.11-16,.79-31.89.18-47.85-.6-15.42-1.4-30.86-.5-46.28a251.87,251.87,0,0,1,20.36-85.8c21-47.9,59.06-87.62,104.48-113.12a249.24,249.24,0,0,1,68.84-26.19C230,234.34,229.68,233.23,229,233.38Z"/><path class="cls-31" d="M218.67,239.82A256,256,0,0,0,84.21,313.21c-38.67,40.15-61.07,91.93-66.12,147.32-3,32.91,2.48,65.4,3.24,98.25.68,29.72,7,57.48,21.5,83.63,26.66,48,73.32,80.74,124.09,99.25,116.75,42.55,247.54,17.25,362.23,67,52.24,22.64,92.59,62.55,136,98.19,20.54,16.88,42,32.85,65.81,44.95a221.8,221.8,0,0,0,83.37,23.32c57.58,4.49,115.78-12.23,165.26-41.22,48.6-28.47,89-69.44,123-113.9a844.24,844.24,0,0,0,49-72.2c16.59-27.08,33-54.6,46.88-83.19,12.78-26.35,23.18-54.65,24.61-84.16,1.26-26.23-5.72-51.2-17.8-74.32-12.21-23.37-28.29-44.4-42.29-66.69-15.73-25.05-26.84-51.37-31.43-80.73-9.28-59.29,1.61-120.53-15.94-178.71a239.47,239.47,0,0,0-83-119.75c-41.32-31.71-92.24-47.93-144.24-47.51A250,250,0,0,0,736.06,66c-41,32.16-72.85,74-110.69,109.53-18.9,17.76-39.5,33.9-62.71,45.66-26.45,13.41-55.42,20.31-84.88,22.64C419,248.54,360.36,237.4,301.71,235c-27.78-1.14-55.66-.31-83,4.84-.6.12-.34,1,.26.92,57.68-10.86,116.41-2.29,174.25,2.46,54.42,4.48,110.89,5.71,161.73-17.2,45.48-20.5,80-57.36,113.49-93.23,36.87-39.54,75-78.94,125.82-100.07s109.08-25.08,162.12-10c49.44,14.07,93,45.58,123.17,87a235.87,235.87,0,0,1,34.14,67.11c8.74,27.47,11.29,56.1,12.09,84.79.83,30.26,0,60.68,4,90.76a204,204,0,0,0,25.8,76.46c26.12,45.19,65.22,85.86,66.73,141,.85,30.79-8.94,60.72-21.77,88.34-13.17,28.36-29.35,55.44-45.49,82.19-58.58,97.08-135.68,192-249.27,224.06-58.76,16.57-122.2,13.82-176.83-14.8-47.81-25-85.57-64.54-127.57-97.65-20.49-16.15-42.15-30.68-65.91-41.61-26.2-12-54.1-20-82.35-25.6-58-11.4-117.18-12.42-175.68-19.57-58.8-7.2-119.83-20.28-169.45-54.31-48.2-33-84-85.41-85.49-145.14-.8-32.28-6-64.61-4-96.9A255.62,255.62,0,0,1,39,381.54c21.6-49.11,61.2-89.53,108.14-115a250.88,250.88,0,0,1,71.75-25.79C219.53,240.63,219.28,239.7,218.67,239.82Z"/><path class="cls-1" d="M3.86,541C6.71,558.15,7,575.4,9.35,592.56a152.73,152.73,0,0,0,9.8,36.68c9.72,24.1,24.94,45.75,43.18,64.16,42.38,42.75,99.36,64.35,157.46,75.83,63.34,12.53,128.16,14,191.86,24,30.72,4.82,61.26,11.58,90.45,22.44A305,305,0,0,1,582.78,861c44.5,34.5,82.28,77.89,131.34,106.37s106.27,35.14,161.51,24.46c121.2-23.42,206.76-117.71,273.16-215.38,17.45-25.66,34.56-51.71,50.39-78.4s30.36-55.32,35.84-86.18a129.6,129.6,0,0,0-11.5-80.57c-11.83-24.19-29-45.22-44.84-66.8-17.34-23.57-32.77-48.06-40.24-76.67-8.33-31.9-8.17-65.21-8-97.94.14-30.58.42-61.44-5.57-91.56a250.81,250.81,0,0,0-28.26-75.23c-26.1-45.73-66.41-83.67-115-104.43-51.08-21.81-109.94-24.44-163-8.1a223.5,223.5,0,0,0-71.91,37.68c-20.48,16-38.38,35.08-55.31,54.77C657.05,142.92,626,187.34,582.51,218.16,477,293,346.07,232.69,229,243.66A258.37,258.37,0,0,0,81,308.37C37.58,347.24,10.32,399.45,2.49,457.12A282.15,282.15,0,0,0,3.86,541c.07.47.8.27.72-.2-9.89-59.93-1.05-124.56,30.86-176.9,29.16-47.84,75.4-84.9,127.73-104.54,56.68-21.27,117.06-17.54,176.12-11.09,57.27,6.25,116.62,15.59,173.58,2.18,51.44-12.11,91.21-44.6,125.59-83.34,34-38.3,63.56-81.1,103.28-114C785.72,16.79,841.86-1.34,898.82,1a233.51,233.51,0,0,1,152.36,65c38.7,37.17,65.38,86.81,74.27,139.78,10.4,62-4.16,126.49,13.69,187.46,15.26,52.13,57.84,88,82.12,135.28,14.06,27.35,18.46,57.15,12.24,87.36-6.54,31.78-22.21,61-39,88.46-31.7,52.06-65.73,103.67-105.36,150.08-38.36,44.92-83.38,85.17-136.93,111-52.63,25.36-113.37,37.83-171.31,26.53-57-11.13-101.35-47-143.5-84.82-20.38-18.28-40.59-36.85-62.69-53.06a299,299,0,0,0-76.41-40.5c-57.21-20.47-118.27-25.74-178.3-31.61-64.14-6.28-130-13.59-189-41.29C81.36,717.26,37,676.36,17.93,624,8.13,597.1,9.21,568.69,4.58,540.8,4.5,540.32,3.78,540.53,3.86,541Z"/></svg>